Coordinates
version=1
nRows=29
nColumns=24
inDegrees=yes

Units are S.I. units (second, meters, Newtons, ...)
Angles are in degrees.

endheader
time	pelvis_tilt	pelvis_list	pelvis_rotation	pelvis_tx	pelvis_ty	pelvis_tz	hip_flexion_r	hip_adduction_r	hip_rotation_r	knee_angle_r	ankle_angle_r	subtalar_angle_r	mtp_angle_r	hip_flexion_l	hip_adduction_l	hip_rotation_l	knee_angle_l	ankle_angle_l	subtalar_angle_l	mtp_angle_l	lumbar_extension	lumbar_bending	lumbar_rotation
      0.94666667	      5.12908464	     -5.00614951	      0.86684948	     -0.38506595	      1.01139786	      0.34591209	      2.07913506	     11.09605802	      1.24000186	    -13.59373860	      2.63394064	    -14.35228390	     -4.08460825	      8.24102866	     -5.20908674	      0.92400561	    -69.89526687	    -10.14506179	    -11.52821957	      2.89690377	     -4.60103043	      9.50752010	      3.23647894
      0.95083333	      5.12560314	     -4.89428298	      0.67799122	     -0.38037566	      1.01192604	      0.34625379	      1.61960487	     10.98349444	      1.41338576	    -13.30971335	      2.63995539	    -14.26772975	     -4.09455993	      8.86606392	     -5.06315188	      0.86262738	    -69.96729692	     -9.49729067	    -11.93363275	      2.82893547	     -4.67126251	      9.36037404	      3.31448695
      0.95500000	      5.13329136	     -4.77423363	      0.51079698	     -0.37565165	      1.01246167	      0.34654199	      1.13217767	     10.85693739	      1.58018098	    -12.99268134	      2.67174479	    -14.17743589	     -4.09995454	      9.46714460	     -4.89892532	      0.83168322	    -69.98377124	     -8.87682159	    -12.29453972	      2.78920293	     -4.72951945	      9.22071389	      3.39492909
      0.95916667	      5.19636830	     -4.67110759	      0.30928398	     -0.37096809	      1.01302587	      0.34690391	      0.57737231	     10.75303455	      1.81803374	    -12.65574128	      2.63184859	    -14.10359482	     -4.14047082	      9.99440507	     -4.77811436	      0.74274121	    -69.95740532	     -8.27917621	    -12.64604545	      2.56177104	     -4.88943715	      9.07002996	      3.72790631
      0.96333333	      5.24775500	     -4.56979588	      0.11915470	     -0.36628595	      1.01355636	      0.34723557	      0.04131084	     10.64652440	      2.03817221	    -12.33083429	      2.63953769	    -14.06095803	     -4.20402309	     10.52767687	     -4.65591796	      0.67281287	    -69.89162417	     -7.64061258	    -12.91803015	      2.23937668	     -5.01636090	      8.93185310	      3.90350451
      0.96750000	      5.23324333	     -4.45045270	     -0.05626259	     -0.36162886	      1.01396968	      0.34750294	     -0.39129149	     10.51053209	      2.19091940	    -12.06538094	      2.69563416	    -13.97698329	     -4.21156677	     11.13404845	     -4.49519867	      0.63986063	    -69.79049360	     -7.02594149	    -13.19814996	      2.19978251	     -5.06117736	      8.79012231	      3.93211470
      0.97166667	      5.26906954	     -4.34661658	     -0.25947166	     -0.35698425	      1.01441133	      0.34783290	     -0.89831273	     10.39381678	      2.42316714	    -11.75807162	      2.70367691	    -13.88244303	     -4.26681836	     11.66967034	     -4.37559383	      0.56247506	    -69.64840720	     -6.38776869	    -13.34924558	      1.96239698	     -5.18684041	      8.64765766	      4.18622531
      0.97583333	      5.27355176	     -4.23996045	     -0.45966473	     -0.35235003	      1.01479026	      0.34813677	     -1.34454964	     10.26605737	      2.59716725	    -11.50353931	      2.74687235	    -13.80719402	     -4.28932509	     12.23234608	     -4.25083629	      0.48991475	    -69.46396493	     -5.77079332	    -13.54915693	      1.87370135	     -5.25954144	      8.50067136	      4.24450250
      0.98000000	      5.28794051	     -4.14146341	     -0.64865991	     -0.34771790	      1.01514386	      0.34842417	     -1.81241327	     10.14655586	      2.79589227	    -11.22362597	      2.79015180	    -13.72291257	     -4.31820614	     12.77773285	     -4.13571892	      0.43273020	    -69.24503462	     -5.13930093	    -13.64539624	      1.77067505	     -5.35005331	      8.36416255	      4.37387424
      0.98416667	      5.32510794	     -4.05503082	     -0.82193140	     -0.34309802	      1.01551141	      0.34867929	     -2.32071788	     10.04130035	      3.02188119	    -10.91042933	      2.82643393	    -13.80817052	     -4.53154210	     13.28985757	     -4.02607372	      0.40296467	    -68.98486005	     -4.50716981	    -13.71296013	      1.10257348	     -5.47166529	      8.26440964	      4.72018080
      0.98833333	      5.32475179	     -3.94862141	     -1.02471107	     -0.33847282	      1.01581029	      0.34896832	     -2.76392668	      9.90400865	      3.21411856	    -10.64521233	      2.89397643	    -13.65974949	     -4.55386346	     13.82589463	     -3.91177012	      0.32900325	    -68.67411241	     -3.92072327	    -13.71690951	      1.04185724	     -5.52726183	      8.11106188	      4.70651450
      0.99250000	      5.34502151	     -3.84546285	     -1.20831084	     -0.33384209	      1.01611703	      0.34920355	     -3.23127605	      9.76428868	      3.37558163	    -10.37311948	      2.96182125	    -13.54893198	     -4.57586630	     14.32745435	     -3.78980469	      0.28264721	    -68.31833293	     -3.31871040	    -13.70783253	      0.99075674	     -5.60006691	      7.99337659	      4.78009233
      0.99666667	      5.38438326	     -3.76750021	     -1.37242699	     -0.32923887	      1.01638745	      0.34944185	     -3.73096012	      9.65460753	      3.55865492	    -10.07286051	      3.03254331	    -13.44861770	     -4.62808949	     14.81103877	     -3.70233150	      0.25974448	    -67.94756308	     -2.70771734	    -13.55110937	      0.87961042	     -5.72936639	      7.87608583	      4.96387548
      1.00083333	      5.40865793	     -3.68108213	     -1.55269110	     -0.32465345	      1.01661990	      0.34969350	     -4.19984424	      9.53117320	      3.73725812	     -9.79949574	      3.10322875	    -13.36601573	     -4.67903827	     15.29609809	     -3.61214099	      0.21186131	    -67.52826894	     -2.12797719	    -13.43797796	      0.78186999	     -5.83228632	      7.74630313	      5.09416967
      1.00500000	      5.42386907	     -3.60762631	     -1.72756416	     -0.32005186	      1.01680807	      0.34991696	     -4.66230793	      9.41767970	      3.90703914	     -9.52005665	      3.17395698	    -13.29269832	     -4.73753642	     15.77938677	     -3.53502369	      0.17517324	    -67.07456376	     -1.55171323	    -13.28188329	      0.68265693	     -5.90904865	      7.65492659	      5.22665642
      1.00916667	      5.42763635	     -3.52158865	     -1.91056132	     -0.31546170	      1.01695471	      0.35013384	     -5.09660679	      9.28584825	      4.06819267	     -9.27131054	      3.24542131	    -13.20790246	     -4.77833440	     16.26004350	     -3.44578060	      0.12636070	    -66.57449270	     -1.00520982	    -13.14083528	      0.62135526	     -5.97942768	      7.54579365	      5.31928198
      1.01333333	      5.45172682	     -3.45029525	     -2.08002300	     -0.31087987	      1.01710198	      0.35035374	     -5.56294596	      9.16906593	      4.22839811	     -8.99792893	      3.31814533	    -13.11492582	     -4.81790984	     16.71079062	     -3.37732647	      0.08711623	    -66.04311271	     -0.46026598	    -12.94412115	      0.56845526	     -6.08277988	      7.43258859	      5.42657575
      1.01750000	      5.48007676	     -3.40586309	     -2.21899107	     -0.30628944	      1.01720345	      0.35052359	     -6.04706301	      9.08140469	      4.38040429	     -8.69686250	      3.39527092	    -13.05494398	     -4.90299007	     17.15249599	     -3.32898655	      0.08934430	    -65.48678096	      0.06210909	    -12.69867807	      0.45686687	     -6.18307923	      7.37307138	      5.59662686
      1.02166667	      5.50014843	     -3.32685466	     -2.39815794	     -0.30169717	      1.01730633	      0.35073218	     -6.50143234	      8.94656193	      4.52333797	     -8.43568092	      3.46895470	    -12.96040009	     -4.94874186	     17.57239500	     -3.25978512	      0.02946633	    -64.86318334	      0.55340220	    -12.48424864	      0.40452688	     -6.26547247	      7.26227277	      5.67462621
      1.02583333	      5.49686590	     -3.27600785	     -2.54692797	     -0.29710889	      1.01730154	      0.35090087	     -6.93321372	      8.84487006	      4.65204763	     -8.16831356	      3.54648203	    -12.86365440	     -4.98961726	     18.02111118	     -3.21277857	      0.01260125	    -64.23130521	      1.03180504	    -12.25861112	      0.36153295	     -6.32651984	      7.18653771	      5.76905845
      1.03000000	      5.52636279	     -3.22919866	     -2.69584923	     -0.29251331	      1.01733912	      0.35106246	     -7.40641864	      8.74150023	      4.77995770	     -7.88673525	      3.62205510	    -12.76554003	     -5.03375871	     18.41193422	     -3.17301806	     -0.01244437	    -63.54883555	      1.49032627	    -12.01204263	      0.31757896	     -6.42438167	      7.11836427	      5.87616566
      1.03416667	      5.53951449	     -3.18512402	     -2.83700475	     -0.28791624	      1.01730870	      0.35121627	     -7.85840099	      8.64098151	      4.89875497	     -7.61148792	      3.69604872	    -12.67072904	     -5.07624778	     18.81141797	     -3.13785828	     -0.03376799	    -62.83791959	      1.92495777	    -11.77509354	      0.27735563	     -6.50584198	      7.05037942	      5.97694476
      1.03833333	      5.55729187	     -3.14848443	     -2.97219101	     -0.28330654	      1.01726047	      0.35135181	     -8.31758049	      8.54553858	      5.00855779	     -7.33225521	      3.76956950	    -12.57010686	     -5.11963380	     19.18918912	     -3.10913936	     -0.05080456	    -62.08777717	      2.33398905	    -11.53985402	      0.23708997	     -6.58735430	      6.99064331	      6.07878428
      1.04250000	      5.58414377	     -3.11068152	     -3.10419949	     -0.27869403	      1.01719826	      0.35148159	     -8.78605180	      8.44560050	      5.11248783	     -7.05273847	      3.84505494	    -12.46567868	     -5.16077314	     19.54046264	     -3.08039492	     -0.07211278	    -61.29755175	      2.71714338	    -11.32331375	      0.19967207	     -6.67974101	      6.92974259	      6.17639029
      1.04666667	      5.58948047	     -3.08333505	     -3.22913302	     -0.27407390	      1.01706605	      0.35159494	     -9.22725904	      8.35682505	      5.20674851	     -6.78145772	      3.92170964	    -12.35916367	     -5.20036641	     19.90336699	     -3.06326794	     -0.08728272	    -60.47845040	      3.07917614	    -11.11166283	      0.16399616	     -6.74581501	      6.88185076	      6.27155295
      1.05083333	      5.61404569	     -3.06984596	     -3.34260185	     -0.26944506	      1.01693524	      0.35169860	     -9.69589670	      8.28041121	      5.28977016	     -6.49668982	      3.99969597	    -12.25477544	     -5.24760491	     20.23080561	     -3.06452887	     -0.10423430	    -59.62591956	      3.42185563	    -10.89610986	      0.12118124	     -6.83292834	      6.84972225	      6.37579352
      1.05500000	      5.61191943	     -3.05728908	     -3.45908054	     -0.26481697	      1.01672969	      0.35179170	    -10.12609427	      8.20499022	      5.37917976	     -6.23197188	      4.07577526	    -12.14633923	     -5.28829223	     20.57166360	     -3.06401234	     -0.11703131	    -58.73946505	      3.74265657	    -10.70841809	      0.08469162	     -6.89076537	      6.81956692	      6.46054910
      1.05916667	      5.63039356	     -3.04991579	     -3.56654466	     -0.26018040	      1.01651921	      0.35187675	    -10.57824515	      8.13246866	      5.45577641	     -5.96919592	      4.15938230	    -12.03523291	     -5.32412725	     20.87263816	     -3.06898236	     -0.12910883	    -57.81611353	      4.04817924	    -10.52777883	      0.05230054	     -6.96991616	      6.79452616	      6.54136669
      1.06333333	      5.62982436	     -3.03894303	     -3.67042243	     -0.25552288	      1.01626392	      0.35194880	    -11.01121403	      8.05545307	      5.52083506	     -5.70248165	      4.24189190	    -11.91762630	     -5.36094119	     21.17638134	     -3.07079123	     -0.14744154	    -56.85458047	      4.32238043	    -10.36299498	      0.01770566	     -7.02497763	      6.76533812	      6.63067484
